<!-- Generated by IcoMoon.io -->
<svg version="1.1" xmlns="http://www.w3.org/2000/svg" width="32" height="32" viewBox="0 0 32 32">
<title>english-language</title>
<path fill="#6787f5" d="M25.438 2.563h-18.875c-3.619 0-6.563 2.944-6.563 6.563v10.559c0 3.619 2.944 6.563 6.563 6.563h0.974l2.282 2.896c0.178 0.226 0.449 0.357 0.736 0.357s0.559-0.132 0.736-0.357l2.282-2.896h11.864c3.619 0 6.563-2.944 6.563-6.563v-10.559c0-3.619-2.944-6.563-6.563-6.563z"></path>
<path fill="#38478a" d="M25.438 2.563h-9.438v23.684h9.438c3.619 0 6.563-2.944 6.563-6.563v-10.559c0-3.619-2.944-6.563-6.563-6.563z"></path>
<path fill="#fff" d="M12.485 27.628l1.089-1.382z"></path>
<path fill="#fff" d="M32 10.266h-7.883l5.868-5.868c-1.18-1.136-2.784-1.836-4.548-1.836h-1.572l-3.726 3.726v-3.726h-8.28v3.726l-3.726-3.726h-1.572c-1.764 0-3.367 0.7-4.548 1.836l5.868 5.868h-7.883v8.28h7.883l-5.866 5.866c1.18 1.136 2.783 1.834 4.546 1.834h0.974l0.265 0.336 3.959-3.959-0.064 3.623h8.445v-3.713l3.701 3.713h1.597c1.756 0 3.352-0.693 4.531-1.82l-0.221-0.222-5.641-5.659h7.893z"></path>
<path fill="#c7d3ed" d="M32 10.266h-7.883l5.868-5.868c-1.18-1.136-2.784-1.836-4.548-1.836h-1.572l-3.726 3.726v-3.726h-4.14v23.684h4.14v-3.713l3.701 3.713h1.597c1.756 0 3.352-0.693 4.531-1.82l-0.221-0.222-5.641-5.659h7.893z"></path>
<path fill="#ff337a" d="M18.265 12.141v-9.578h-4.53v9.578h-13.735v4.53h13.735l-0.161 9.576h4.691v-9.576h13.735v-4.53z"></path>
<path fill="#d1005b" d="M18.265 12.141v-9.578h-2.265v23.684h2.265v-9.576h13.735v-4.53z"></path>
<path fill="#ff337a" d="M12.485 10.891v-1.326l-6.926-6.926c-0.71 0.109-1.383 0.333-2 0.652l7.6 7.6z"></path>
<path fill="#d1005b" d="M28.441 3.291c-0.616-0.319-1.29-0.542-2-0.652l-6.926 6.926v1.326h1.326z"></path>
<path fill="#ff337a" d="M3.561 25.519c0.617 0.318 1.29 0.542 2 0.651l6.924-6.924v-1.326h-1.326z"></path>
<path fill="#d1005b" d="M19.515 17.921v1.33l6.9 6.923c0.712-0.107 1.386-0.328 2.005-0.645l-7.583-7.608z"></path>
</svg>
