<?xml version="1.0" encoding="UTF-8" standalone="no"?>
<svg
   xmlns:dc="http://purl.org/dc/elements/1.1/"
   xmlns:cc="http://creativecommons.org/ns#"
   xmlns:rdf="http://www.w3.org/1999/02/22-rdf-syntax-ns#"
   xmlns:svg="http://www.w3.org/2000/svg"
   xmlns="http://www.w3.org/2000/svg"
   xmlns:sodipodi="http://sodipodi.sourceforge.net/DTD/sodipodi-0.dtd"
   xmlns:inkscape="http://www.inkscape.org/namespaces/inkscape"
   version="1.1"
   x="0px"
   y="0px"
   viewBox="0 0 92.096001 31.799"
   enable-background="new 0 0 100 100"
   xml:space="preserve"
   id="svg38"
   sodipodi:docname="dead-battleship.svg"
   width="92.096001"
   height="31.799"
   inkscape:version="1.0.1 (c497b03c, 2020-09-10)"><metadata
     id="metadata44"><rdf:RDF><cc:Work
         rdf:about=""><dc:format>image/svg+xml</dc:format><dc:type
           rdf:resource="http://purl.org/dc/dcmitype/StillImage" /><dc:title></dc:title></cc:Work></rdf:RDF></metadata><defs
     id="defs42" /><sodipodi:namedview
     pagecolor="#ffffff"
     bordercolor="#666666"
     borderopacity="1"
     objecttolerance="10"
     gridtolerance="10"
     guidetolerance="10"
     inkscape:pageopacity="0"
     inkscape:pageshadow="2"
     inkscape:window-width="1440"
     inkscape:window-height="791"
     id="namedview40"
     showgrid="false"
     inkscape:zoom="3.50334"
     inkscape:cx="55.134023"
     inkscape:cy="32.208252"
     inkscape:window-x="0"
     inkscape:window-y="23"
     inkscape:window-maximized="0"
     inkscape:current-layer="svg38" /><g
     id="g62"
     transform="translate(-2.89,-29.188)"><path
       fill="#000000"
       stroke="#ed1c24"
       stroke-width="0.5"
       stroke-miterlimit="10"
       d="M 92.167,51.542"
       id="path10" /><path
       fill="#000000"
       stroke="#ed1c24"
       stroke-width="0.5"
       stroke-miterlimit="10"
       d="M 17.016,54.703"
       id="path12" /><path
       fill="#000000"
       stroke="#ed1c24"
       stroke-width="0.5"
       stroke-miterlimit="10"
       d="M 48.921,46.5"
       id="path14" /><path
       fill="#000000"
       stroke="#ed1c24"
       stroke-width="0.5"
       stroke-miterlimit="10"
       d="M 42.338,46.562"
       id="path16" /><path
       d="M 4.375,60.986"
       id="path18" /><g
       id="g47"><path
         d="M 7.3589934,60.986 2.89,56.468 l 14.130984,0.016 -0.0059,-1.781 h 12.025981 l -0.01,-2.453 h 12.00998 l -0.04097,-2.625 h 1.337995 v -3.062 h 5.661992 l 0.688941,-12.401 h -2.438999 l 0.012,-0.643 h 2.426 l 0.124998,-4.331 h 0.395999 l 0.083,4.274 h 2.270998 l 0.02097,0.7 H 49.34198 l 0.657997,12.4 h 3.452994 L 53.412049,41.78 C 52.836053,41.511 52.43705,40.927 52.43705,40.25 v 0 c 0,-0.932 0.755996,-1.688 1.687995,-1.688 h 1.146005 c 0.931999,0 1.687992,0.755 1.687992,1.688 v 0 c 0,0.654 -0.372999,1.222 -0.917995,1.501 l 0.02101,4.624 h 2.803997 v 4.188 h 9.070991 v 0.968 l 24.228963,0.012 2.819996,-0.167 -7.236987,9.611"
         id="path20"
         style="stroke-width:0.99999" /></g><path
       d="m 7.359,55.688 h 6.469 v -4.5 c 0,0 -6.375,-0.187 -6.469,4.5 z"
       id="path22" /><path
       d="m 27.38,53.896 h -6.469 v -4.5 c 10e-4,0 6.376,-0.187 6.469,4.5 z"
       id="path24" /><path
       d="m 79.771,51 h -6.469 v -4.5 c 0,0 6.375,-0.187 6.469,4.5 z"
       id="path26" /><path
       d="M 8.635,51.979 4.74,50.562 4.505,51.208 7.991,52.477 c -10e-4,0 0.303,-0.302 0.644,-0.498 z"
       id="path28" /><path
       d="m 25.903,50.145 3.896,-1.418 0.235,0.646 -3.486,1.269 c 0,0 -0.304,-0.302 -0.645,-0.497 z"
       id="path30" /><path
       d="m 78.236,47.21 3.896,-1.418 0.235,0.646 -3.486,1.269 c 0,10e-4 -0.304,-0.301 -0.645,-0.497 z"
       id="path32" /></g><g
     aria-label="X"
     id="text1056"
     style="font-style:normal;font-weight:normal;font-size:40px;line-height:1.25;font-family:sans-serif;white-space:pre;inline-size:31.8418;fill:#ff0000;fill-opacity:1;stroke:none"
     transform="matrix(1.4494784,0,0,1.0550559,-151.18078,-2.4824911)"><path
       d="m 139.18369,18.820322 8.0664,10.449218 q 1.32813,1.71875 1.89453,2.1875 0.58594,0.46875 1.60157,0.625 v 0.625 h -10.56641 v -0.625 q 1.17188,-0.234375 1.17188,-1.015625 0,-0.410156 -0.70313,-1.328125 l -5.13672,-6.601562 -4.88281,6.386719 q -0.80078,1.035156 -0.80078,1.464843 0,0.976563 1.30859,1.09375 v 0.625 h -10.23437 v -0.625 q 0.89843,-0.09766 1.38672,-0.507812 0.50781,-0.410156 2.01171,-2.304688 l 8.04688,-10.15625 -7.40234,-9.6874999 q -1.44532,-1.894531 -1.9336,-2.265625 -0.46875,-0.390625 -1.52344,-0.488281 l -0.0195,-0.625 H 132.172 v 0.625 q -1.17188,0.3125 -1.17188,1.191406 0,0.46875 0.83985,1.5625 l 4.17968,5.3710939 4.23829,-5.3710939 q 0.9375,-1.191406 0.9375,-1.679687 0,-0.859375 -1.34766,-1.074219 v -0.625 h 10.41016 v 0.625 q -0.9375,0.09766 -1.34766,0.429688 -0.39063,0.3125 -2.05078,2.324218 z"
       style="font-style:normal;font-variant:normal;font-weight:normal;font-stretch:normal;font-family:'Copperplate Gothic Bold';-inkscape-font-specification:'Copperplate Gothic Bold, ';fill:#ff0000"
       id="path1058" /></g></svg>
